<svg id="svg" version="1.1" xmlns="http://www.w3.org/2000/svg" xmlns:xlink="http://www.w3.org/1999/xlink" width="400" height="400" viewBox="0, 0, 400,400"><g id="svgg"><path id="path0" d="M102.000 78.199 C 94.616 79.876,88.592 83.924,84.405 90.019 C 78.580 98.499,77.932 109.239,82.694 118.363 C 85.089 122.952,87.696 125.877,91.986 128.791 C 107.430 139.278,128.398 132.044,134.274 114.200 C 140.778 94.452,122.112 73.630,102.000 78.199 M264.600 152.856 C 251.185 154.522,245.828 155.912,238.200 159.704 C 228.289 164.631,223.073 171.065,221.015 180.900 C 220.817 181.845,220.589 182.000,219.392 182.000 L 218.000 182.000 218.000 169.200 L 218.000 156.400 192.600 156.400 L 167.200 156.400 167.200 236.003 L 167.200 315.606 192.500 315.503 L 217.800 315.400 218.022 269.000 C 218.238 223.796,218.265 222.502,219.082 218.800 C 222.312 204.161,228.751 196.236,239.846 193.244 C 242.162 192.619,253.284 192.703,256.000 193.365 C 268.560 196.427,275.157 203.858,278.050 218.200 C 278.404 219.956,278.596 233.326,278.767 268.000 L 279.000 315.400 304.300 315.503 L 329.600 315.606 329.600 258.819 C 329.600 203.943,329.479 197.367,328.365 191.600 C 324.228 170.183,311.445 157.672,289.600 153.661 C 282.728 152.399,271.255 152.030,264.600 152.856 M82.099 235.900 L 82.200 315.400 107.400 315.400 L 132.600 315.400 132.701 235.900 L 132.802 156.400 107.400 156.400 L 81.998 156.400 82.099 235.900 " stroke="none" fill="#47a3ce" fill-rule="evenodd"></path><path id="path1" d="M73.744 33.391 C 60.529 35.789,48.611 43.728,40.921 55.254 C 35.954 62.699,33.450 70.105,32.793 79.292 C 32.274 86.559,33.038 313.736,33.602 319.741 C 34.029 324.289,34.636 327.966,35.196 329.400 C 35.368 329.840,35.750 331.010,36.045 332.000 C 36.341 332.990,37.006 334.685,37.524 335.766 L 38.465 337.732 58.426 317.774 L 78.386 297.817 78.493 308.408 L 78.600 319.000 95.642 319.104 C 112.076 319.205,112.709 319.237,113.404 320.004 C 114.298 320.992,114.456 320.992,115.600 320.000 C 117.005 318.782,118.067 319.367,119.313 322.045 C 119.683 322.840,120.259 323.717,120.593 323.994 C 120.927 324.271,121.200 324.746,121.200 325.049 C 121.200 325.854,121.621 325.730,122.835 324.567 C 123.940 323.508,125.600 324.026,125.600 325.430 C 125.600 325.678,126.140 326.446,126.800 327.137 C 127.460 327.828,128.000 328.664,128.000 328.996 C 128.000 329.776,129.354 329.778,130.000 329.000 C 130.757 328.088,133.600 329.805,133.600 331.174 C 133.600 331.423,134.210 332.237,134.955 332.982 L 136.311 334.337 137.436 333.162 L 138.562 331.987 140.681 334.080 C 141.846 335.231,142.800 336.376,142.800 336.624 C 142.800 337.749,144.206 338.425,144.808 337.589 C 145.838 336.159,147.186 336.609,149.885 339.284 C 151.847 341.229,152.497 341.663,152.876 341.284 C 153.790 340.370,155.387 340.743,156.800 342.200 C 157.546 342.970,158.364 343.600,158.616 343.600 C 158.869 343.600,159.404 343.963,159.806 344.406 L 160.535 345.212 161.393 344.406 C 162.410 343.451,163.316 343.376,163.993 344.192 C 164.632 344.961,166.726 346.000,167.638 346.000 C 168.031 346.000,168.464 346.180,168.600 346.400 C 168.928 346.930,171.482 346.915,171.812 346.381 C 171.982 346.106,172.233 346.096,172.541 346.351 C 172.799 346.565,174.718 346.840,176.805 346.962 C 184.395 347.403,187.007 347.667,187.380 348.030 C 187.891 348.527,191.089 348.503,191.400 348.000 C 191.536 347.780,192.076 347.600,192.600 347.600 C 193.124 347.600,193.664 347.780,193.800 348.000 C 193.936 348.220,195.016 348.400,196.200 348.400 C 197.384 348.400,198.464 348.580,198.600 348.800 C 198.942 349.353,201.446 349.303,202.372 348.725 C 202.962 348.356,203.475 348.363,204.666 348.755 C 205.717 349.101,207.460 349.186,210.200 349.023 C 212.400 348.893,216.355 348.688,218.989 348.568 C 221.783 348.441,224.015 348.152,224.347 347.875 C 224.925 347.392,234.269 346.522,242.841 346.154 L 247.482 345.955 249.022 344.377 C 249.909 343.470,250.942 342.800,251.458 342.800 C 251.950 342.800,252.454 342.637,252.577 342.437 C 252.700 342.238,253.700 341.951,254.800 341.800 C 255.900 341.649,256.900 341.362,257.023 341.163 C 257.146 340.963,257.687 340.800,258.224 340.800 C 258.761 340.800,259.200 340.620,259.200 340.400 C 259.200 340.180,259.560 340.000,260.000 340.000 C 260.440 340.000,260.800 339.820,260.800 339.600 C 260.800 339.380,261.145 339.200,261.567 339.200 C 261.988 339.200,262.393 339.059,262.467 338.887 C 262.540 338.715,264.310 337.730,266.400 336.698 C 269.550 335.142,270.780 334.238,273.591 331.411 C 275.456 329.535,277.178 328.000,277.416 328.000 C 277.655 328.000,278.368 327.460,279.000 326.800 C 279.632 326.140,280.347 325.600,280.589 325.600 C 280.830 325.600,282.005 324.610,283.200 323.400 C 284.395 322.190,285.549 321.200,285.764 321.200 C 285.980 321.200,286.616 320.762,287.178 320.228 L 288.200 319.255 310.436 318.968 L 332.671 318.681 332.936 299.475 C 333.351 269.279,333.257 199.455,332.795 195.590 C 331.917 188.241,329.456 179.819,326.764 174.955 C 325.370 172.435,324.996 171.796,324.800 171.600 C 323.423 170.223,323.309 168.400,324.600 168.400 C 325.775 168.400,325.818 168.159,324.953 166.427 C 324.555 165.627,324.389 164.622,324.522 163.805 C 324.693 162.752,324.538 162.293,323.768 161.570 C 322.724 160.589,322.493 159.370,323.300 159.099 C 323.690 158.968,323.674 158.695,323.228 157.857 C 322.789 157.033,322.766 156.674,323.128 156.312 C 323.703 155.737,323.752 153.741,323.200 153.400 C 322.157 152.755,322.750 147.798,324.015 146.585 C 325.363 145.294,326.400 143.458,326.400 142.362 C 326.400 141.969,326.580 141.536,326.800 141.400 C 327.020 141.264,327.200 140.533,327.200 139.776 C 327.200 139.019,327.380 138.400,327.600 138.400 C 327.820 138.400,328.000 137.860,328.000 137.200 C 328.000 136.540,328.180 136.000,328.400 136.000 C 328.620 136.000,328.800 135.201,328.800 134.224 C 328.800 133.247,328.960 132.348,329.156 132.227 C 329.518 132.004,329.861 130.435,330.257 127.200 C 330.378 126.210,330.640 125.229,330.839 125.020 C 331.037 124.811,331.200 123.877,331.200 122.944 C 331.200 122.011,331.380 121.136,331.600 121.000 C 331.820 120.864,332.000 119.773,332.000 118.576 C 332.000 117.379,332.180 116.400,332.400 116.400 C 332.620 116.400,332.800 115.930,332.800 115.355 C 332.800 114.600,333.409 113.752,335.001 112.295 C 337.990 109.556,338.400 108.601,338.400 104.362 C 338.400 102.429,338.580 100.736,338.800 100.600 C 339.020 100.464,339.200 99.407,339.200 98.251 C 339.200 96.438,339.365 95.992,340.400 95.000 L 341.600 93.850 341.600 87.995 C 341.600 82.266,341.622 82.119,342.600 81.200 C 343.791 80.081,344.183 75.818,343.005 76.796 C 342.125 77.526,341.885 76.554,342.064 72.996 L 342.216 69.995 347.608 64.593 L 353.000 59.191 353.134 54.384 L 353.268 49.577 350.325 46.689 C 346.905 43.332,344.805 41.618,344.100 41.607 C 343.825 41.603,343.600 41.442,343.600 41.248 C 343.600 41.055,341.935 40.082,339.900 39.087 C 334.485 36.440,332.847 35.782,329.400 34.869 C 328.520 34.636,326.990 34.230,326.000 33.967 C 321.915 32.883,79.592 32.329,73.744 33.391 M44.236 44.360 C 43.719 44.932,43.669 45.196,44.036 45.422 C 44.304 45.588,44.425 45.561,44.304 45.362 C 44.018 44.892,45.020 43.963,45.422 44.324 C 45.590 44.476,45.599 44.375,45.441 44.100 C 45.070 43.456,45.050 43.460,44.236 44.360 M113.000 77.762 C 135.186 82.860,143.485 108.938,128.108 125.238 C 111.728 142.602,82.730 133.043,79.456 109.200 C 77.629 95.894,85.891 82.822,98.675 78.791 C 100.174 78.318,101.850 77.780,102.400 77.596 C 103.525 77.219,111.156 77.339,113.000 77.762 M28.767 81.700 C 28.572 82.285,28.589 83.670,28.793 83.796 C 28.937 83.885,29.055 83.427,29.055 82.779 C 29.055 81.803,28.911 81.266,28.767 81.700 M285.000 152.593 C 287.640 152.916,290.250 153.285,290.800 153.415 C 294.647 154.318,295.729 154.611,298.400 155.475 C 316.090 161.201,326.489 174.587,329.390 195.370 C 330.218 201.302,330.323 315.606,329.500 315.591 C 329.225 315.587,317.750 315.632,304.000 315.691 L 279.000 315.800 278.730 270.400 C 278.475 227.375,278.322 221.853,277.242 216.600 C 277.015 215.500,276.713 214.013,276.569 213.295 C 276.425 212.577,276.149 211.892,275.954 211.771 C 275.759 211.651,275.600 211.282,275.600 210.951 C 275.600 209.808,273.178 205.333,271.280 202.970 C 261.516 190.814,239.173 189.454,228.398 200.361 C 225.234 203.564,222.096 209.014,221.006 213.200 C 220.863 213.750,220.563 214.830,220.340 215.600 C 218.306 222.606,218.018 229.905,218.009 274.700 C 218.002 307.161,217.897 315.595,217.500 315.577 C 217.225 315.565,205.914 315.663,192.364 315.796 C 171.515 315.999,167.657 315.950,167.263 315.476 C 166.912 315.053,166.823 295.408,166.899 235.558 L 167.000 156.200 192.500 156.097 L 218.000 155.994 218.000 168.597 L 218.000 181.200 219.192 181.200 C 220.167 181.200,220.429 181.000,220.628 180.100 C 224.522 162.515,243.984 152.288,274.000 152.055 C 277.410 152.029,282.360 152.271,285.000 152.593 M133.297 171.600 C 133.618 188.175,133.532 315.007,133.200 315.326 C 133.090 315.432,121.570 315.582,107.600 315.659 L 82.200 315.800 82.099 235.897 L 81.998 155.994 107.499 156.097 L 133.000 156.200 133.297 171.600 " stroke="none" fill="#f0f0f0" fill-rule="evenodd"></path><path id="path2" d="M73.394 29.610 C 73.261 29.824,72.591 30.000,71.905 30.000 C 70.627 30.000,68.782 30.503,66.532 31.465 C 65.834 31.763,64.665 32.127,63.934 32.273 C 63.202 32.420,62.363 32.780,62.070 33.073 C 61.776 33.367,61.370 33.505,61.168 33.380 C 60.965 33.255,60.800 33.343,60.800 33.576 C 60.800 33.809,60.455 34.000,60.033 34.000 C 59.612 34.000,59.207 34.167,59.133 34.370 C 59.060 34.574,58.730 34.799,58.400 34.870 C 58.070 34.942,57.710 35.092,57.600 35.205 C 57.490 35.318,56.545 35.842,55.500 36.368 C 54.455 36.895,53.600 37.477,53.600 37.663 C 53.600 37.848,53.229 38.000,52.776 38.000 C 52.323 38.000,52.064 38.180,52.200 38.400 C 52.336 38.620,52.206 38.800,51.912 38.800 C 51.617 38.800,51.124 39.150,50.815 39.579 C 50.507 40.007,50.121 40.275,49.959 40.175 C 49.797 40.074,49.309 40.444,48.874 40.996 C 48.440 41.548,47.957 42.000,47.801 42.000 C 47.431 42.000,42.000 47.431,42.000 47.801 C 42.000 47.957,41.548 48.440,40.996 48.874 C 40.444 49.309,40.074 49.797,40.175 49.959 C 40.275 50.121,40.007 50.507,39.579 50.815 C 39.150 51.124,38.800 51.617,38.800 51.912 C 38.800 52.206,38.620 52.336,38.400 52.200 C 38.180 52.064,38.000 52.323,38.000 52.776 C 38.000 53.229,37.848 53.600,37.663 53.600 C 37.477 53.600,36.895 54.455,36.368 55.500 C 35.842 56.545,35.318 57.490,35.205 57.600 C 35.092 57.710,34.942 58.070,34.870 58.400 C 34.799 58.730,34.574 59.060,34.370 59.133 C 34.167 59.207,34.000 59.612,34.000 60.033 C 34.000 60.455,33.809 60.800,33.576 60.800 C 33.343 60.800,33.255 60.965,33.380 61.168 C 33.505 61.370,33.367 61.776,33.073 62.070 C 32.780 62.363,32.420 63.202,32.273 63.934 C 32.127 64.665,31.763 65.834,31.465 66.532 C 30.512 68.762,30.000 70.624,30.000 71.862 C 30.000 72.524,29.865 73.202,29.700 73.366 C 29.535 73.531,29.375 74.686,29.345 75.933 C 29.315 77.180,29.251 79.460,29.202 81.000 C 28.831 92.803,29.270 324.796,29.664 325.040 C 29.971 325.229,30.017 325.137,29.803 324.762 C 29.554 324.326,29.595 324.304,29.986 324.665 C 30.538 325.174,30.174 326.155,29.572 325.783 C 29.368 325.656,29.200 325.756,29.200 326.003 C 29.200 326.288,29.530 326.349,30.097 326.169 C 30.891 325.917,30.932 325.959,30.452 326.537 C 29.876 327.231,30.154 329.400,30.770 329.019 C 30.960 328.901,31.228 329.095,31.364 329.451 C 31.554 329.945,31.425 330.047,30.813 329.887 C 30.141 329.712,30.076 329.795,30.407 330.413 C 30.623 330.817,30.800 331.497,30.800 331.925 C 30.800 332.352,31.105 332.949,31.477 333.251 C 32.061 333.725,32.103 333.718,31.788 333.200 C 31.303 332.403,31.178 331.470,31.522 331.210 C 31.675 331.094,31.999 330.640,32.243 330.200 C 32.984 328.862,34.000 328.947,34.000 330.347 C 34.000 331.010,34.180 331.664,34.400 331.800 C 34.620 331.936,34.800 332.399,34.800 332.829 C 34.800 333.259,34.959 333.923,35.153 334.305 C 35.348 334.687,35.682 335.450,35.897 336.000 C 36.625 337.869,38.714 341.915,39.201 342.400 C 39.311 342.510,39.656 343.095,39.968 343.700 C 40.280 344.305,40.685 344.800,40.868 344.800 C 41.050 344.800,41.200 345.070,41.200 345.400 C 41.200 345.730,41.380 346.000,41.600 346.000 C 41.820 346.000,42.000 346.182,42.000 346.403 C 42.000 347.136,48.819 354.373,51.472 356.457 C 57.738 361.378,64.734 364.568,72.920 366.238 L 77.641 367.200 114.120 367.200 C 134.184 367.200,165.612 367.080,183.961 366.933 L 217.321 366.667 220.752 363.237 L 224.182 359.806 226.991 359.680 C 231.081 359.496,258.540 358.338,261.630 358.219 C 263.076 358.163,267.126 357.908,270.630 357.653 C 276.749 357.207,278.245 357.087,284.000 356.581 C 285.430 356.456,286.960 356.195,287.400 356.003 C 287.840 355.810,289.190 355.550,290.400 355.424 C 294.536 354.995,296.000 354.716,296.000 354.358 C 296.000 354.161,297.255 354.000,298.788 354.000 C 300.834 354.000,301.954 353.787,303.000 353.200 C 303.783 352.760,304.978 352.400,305.655 352.400 C 306.418 352.400,307.460 351.945,308.400 351.200 C 309.233 350.540,310.078 350.000,310.276 350.000 C 310.475 350.000,311.341 349.280,312.200 348.400 C 313.059 347.520,313.968 346.800,314.219 346.800 C 314.470 346.800,315.002 346.440,315.400 346.000 C 315.831 345.523,316.632 345.200,317.381 345.200 C 318.320 345.200,319.032 344.796,320.200 343.600 C 321.059 342.720,321.959 342.000,322.200 342.000 C 322.747 342.000,325.600 339.112,325.600 338.558 C 325.600 338.333,326.140 337.632,326.800 337.000 C 327.460 336.368,328.000 335.648,328.000 335.400 C 328.000 335.152,328.540 334.432,329.200 333.800 C 329.860 333.168,330.400 332.442,330.400 332.187 C 330.400 331.932,330.760 331.398,331.200 331.000 C 331.640 330.602,332.000 330.062,332.000 329.800 C 332.000 329.538,332.360 328.998,332.800 328.600 C 333.240 328.202,333.600 327.668,333.600 327.413 C 333.600 327.158,334.140 326.432,334.800 325.800 C 335.460 325.168,336.000 324.454,336.000 324.214 C 336.000 323.975,337.264 322.524,338.809 320.991 C 341.810 318.013,346.000 310.630,346.000 308.321 C 346.000 307.730,346.180 307.136,346.400 307.000 C 346.620 306.864,346.800 306.313,346.800 305.776 C 346.800 305.239,346.980 304.800,347.200 304.800 C 347.420 304.800,347.600 304.080,347.600 303.200 C 347.600 302.320,347.780 301.600,348.000 301.600 C 348.220 301.600,348.400 301.100,348.400 300.488 C 348.400 299.835,348.730 299.139,349.200 298.800 C 349.640 298.483,350.000 297.824,350.000 297.335 C 350.000 296.847,350.180 296.336,350.400 296.200 C 350.620 296.064,350.800 295.524,350.800 295.000 C 350.800 294.476,350.980 293.936,351.200 293.800 C 351.420 293.664,351.600 292.107,351.600 290.339 C 351.600 287.732,351.751 286.934,352.400 286.109 C 352.951 285.409,353.200 284.486,353.200 283.146 C 353.200 282.076,353.380 281.200,353.600 281.200 C 353.843 281.200,354.000 279.444,354.000 276.731 C 354.000 273.037,354.121 272.129,354.700 271.490 C 355.443 270.670,355.816 266.703,356.232 255.200 C 356.376 251.221,356.608 249.432,357.113 248.400 C 357.643 247.321,357.830 245.670,357.930 241.200 C 358.023 237.069,358.215 235.227,358.597 234.800 C 358.965 234.389,359.175 232.683,359.267 229.374 L 359.400 224.547 363.034 220.942 L 366.667 217.338 366.934 183.603 C 367.353 130.541,367.269 79.110,366.760 76.046 C 365.705 69.705,363.975 64.269,361.603 59.845 C 359.084 55.144,358.636 54.400,358.326 54.400 C 358.147 54.400,358.000 54.145,358.000 53.833 C 358.000 53.522,357.865 53.207,357.700 53.133 C 357.535 53.060,356.593 52.010,355.606 50.800 C 350.426 44.447,338.095 35.600,334.421 35.600 C 334.184 35.600,333.677 35.437,333.295 35.237 C 332.250 34.691,328.482 33.588,326.000 33.103 C 324.668 32.842,315.542 32.615,302.861 32.526 L 281.922 32.379 283.361 31.061 C 284.152 30.336,284.800 29.619,284.800 29.467 C 284.800 29.018,73.671 29.161,73.394 29.610 M284.000 33.190 C 313.031 33.407,324.700 33.622,326.000 33.967 C 326.990 34.230,328.520 34.636,329.400 34.869 C 332.847 35.782,334.485 36.440,339.900 39.087 C 341.935 40.082,343.600 41.055,343.600 41.248 C 343.600 41.442,343.825 41.603,344.100 41.607 C 344.805 41.618,346.905 43.332,350.325 46.689 L 353.268 49.577 353.134 54.384 L 353.000 59.191 347.608 64.593 L 342.216 69.995 342.064 72.996 C 341.885 76.554,342.125 77.526,343.005 76.796 C 344.183 75.818,343.791 80.081,342.600 81.200 C 341.622 82.119,341.600 82.266,341.600 87.995 L 341.600 93.850 340.400 95.000 C 339.365 95.992,339.200 96.438,339.200 98.251 C 339.200 99.407,339.020 100.464,338.800 100.600 C 338.580 100.736,338.400 102.429,338.400 104.362 C 338.400 108.601,337.990 109.556,335.001 112.295 C 333.409 113.752,332.800 114.600,332.800 115.355 C 332.800 115.930,332.620 116.400,332.400 116.400 C 332.180 116.400,332.000 117.379,332.000 118.576 C 332.000 119.773,331.820 120.864,331.600 121.000 C 331.380 121.136,331.200 122.011,331.200 122.944 C 331.200 123.877,331.037 124.811,330.839 125.020 C 330.640 125.229,330.378 126.210,330.257 127.200 C 329.861 130.435,329.518 132.004,329.156 132.227 C 328.960 132.348,328.800 133.247,328.800 134.224 C 328.800 135.201,328.620 136.000,328.400 136.000 C 328.180 136.000,328.000 136.540,328.000 137.200 C 328.000 137.860,327.820 138.400,327.600 138.400 C 327.380 138.400,327.200 139.019,327.200 139.776 C 327.200 140.533,327.020 141.264,326.800 141.400 C 326.580 141.536,326.400 141.969,326.400 142.362 C 326.400 143.458,325.363 145.294,324.015 146.585 C 322.750 147.798,322.157 152.755,323.200 153.400 C 323.752 153.741,323.703 155.737,323.128 156.312 C 322.766 156.674,322.789 157.033,323.228 157.857 C 323.674 158.695,323.690 158.968,323.300 159.099 C 322.493 159.370,322.724 160.589,323.768 161.570 C 324.538 162.293,324.693 162.752,324.522 163.805 C 324.389 164.622,324.555 165.627,324.953 166.427 C 325.818 168.159,325.775 168.400,324.600 168.400 C 323.309 168.400,323.423 170.223,324.800 171.600 C 324.996 171.796,325.370 172.435,326.764 174.955 C 329.456 179.819,331.917 188.241,332.795 195.590 C 333.257 199.455,333.351 269.279,332.936 299.475 L 332.671 318.681 310.436 318.968 L 288.200 319.255 287.178 320.228 C 286.616 320.762,285.980 321.200,285.764 321.200 C 285.549 321.200,284.395 322.190,283.200 323.400 C 282.005 324.610,280.830 325.600,280.589 325.600 C 280.347 325.600,279.632 326.140,279.000 326.800 C 278.368 327.460,277.655 328.000,277.416 328.000 C 277.178 328.000,275.456 329.535,273.591 331.411 C 270.780 334.238,269.550 335.142,266.400 336.698 C 264.310 337.730,262.540 338.715,262.467 338.887 C 262.393 339.059,261.988 339.200,261.567 339.200 C 261.145 339.200,260.800 339.380,260.800 339.600 C 260.800 339.820,260.440 340.000,260.000 340.000 C 259.560 340.000,259.200 340.180,259.200 340.400 C 259.200 340.620,258.761 340.800,258.224 340.800 C 257.687 340.800,257.146 340.963,257.023 341.163 C 256.900 341.362,255.900 341.649,254.800 341.800 C 253.700 341.951,252.700 342.238,252.577 342.437 C 252.454 342.637,251.950 342.800,251.458 342.800 C 250.942 342.800,249.909 343.470,249.022 344.377 L 247.482 345.955 242.841 346.154 C 234.269 346.522,224.925 347.392,224.347 347.875 C 224.015 348.152,221.783 348.441,218.989 348.568 C 216.355 348.688,212.400 348.893,210.200 349.023 C 207.460 349.186,205.717 349.101,204.666 348.755 C 203.475 348.363,202.962 348.356,202.372 348.725 C 201.446 349.303,198.942 349.353,198.600 348.800 C 198.464 348.580,197.384 348.400,196.200 348.400 C 195.016 348.400,193.936 348.220,193.800 348.000 C 193.664 347.780,193.124 347.600,192.600 347.600 C 192.076 347.600,191.536 347.780,191.400 348.000 C 191.089 348.503,187.891 348.527,187.380 348.030 C 187.007 347.667,184.395 347.403,176.805 346.962 C 174.718 346.840,172.799 346.565,172.541 346.351 C 172.233 346.096,171.982 346.106,171.812 346.381 C 171.482 346.915,168.928 346.930,168.600 346.400 C 168.464 346.180,168.031 346.000,167.638 346.000 C 166.726 346.000,164.632 344.961,163.993 344.192 C 163.316 343.376,162.410 343.451,161.393 344.406 L 160.535 345.212 159.806 344.406 C 159.404 343.963,158.869 343.600,158.616 343.600 C 158.364 343.600,157.546 342.970,156.800 342.200 C 155.387 340.743,153.790 340.370,152.876 341.284 C 152.497 341.663,151.847 341.229,149.885 339.284 C 147.186 336.609,145.838 336.159,144.808 337.589 C 144.206 338.425,142.800 337.749,142.800 336.624 C 142.800 336.376,141.846 335.231,140.681 334.080 L 138.562 331.987 137.436 333.162 L 136.311 334.337 134.955 332.982 C 134.210 332.237,133.600 331.423,133.600 331.174 C 133.600 329.805,130.757 328.088,130.000 329.000 C 129.354 329.778,128.000 329.776,128.000 328.996 C 128.000 328.664,127.460 327.828,126.800 327.137 C 126.140 326.446,125.600 325.678,125.600 325.430 C 125.600 324.026,123.940 323.508,122.835 324.567 C 121.621 325.730,121.200 325.854,121.200 325.049 C 121.200 324.746,120.927 324.271,120.593 323.994 C 120.259 323.717,119.683 322.840,119.313 322.045 C 118.067 319.367,117.005 318.782,115.600 320.000 C 114.456 320.992,114.298 320.992,113.404 320.004 C 112.709 319.237,112.076 319.205,95.642 319.104 L 78.600 319.000 78.493 308.408 L 78.386 297.817 58.426 317.774 L 38.465 337.732 37.524 335.766 C 37.006 334.685,36.341 332.990,36.045 332.000 C 35.750 331.010,35.368 329.840,35.196 329.400 C 34.636 327.966,34.029 324.289,33.602 319.741 C 33.038 313.736,32.274 86.559,32.793 79.292 C 33.928 63.418,41.896 49.807,55.254 40.928 C 60.846 37.211,67.388 34.544,73.744 33.391 C 77.043 32.792,213.136 32.662,284.000 33.190 M102.800 77.606 C 102.378 77.882,102.615 77.923,103.600 77.742 C 105.325 77.425,105.651 77.198,104.367 77.206 C 103.835 77.209,103.130 77.389,102.800 77.606 M87.200 85.800 C 86.228 86.790,85.523 87.600,85.633 87.600 C 85.743 87.600,86.628 86.790,87.600 85.800 C 88.572 84.810,89.277 84.000,89.167 84.000 C 89.057 84.000,88.172 84.810,87.200 85.800 M79.293 103.600 C 79.293 104.370,79.375 104.685,79.476 104.300 C 79.576 103.915,79.576 103.285,79.476 102.900 C 79.375 102.515,79.293 102.830,79.293 103.600 M79.293 107.600 C 79.293 108.370,79.375 108.685,79.476 108.300 C 79.576 107.915,79.576 107.285,79.476 106.900 C 79.375 106.515,79.293 106.830,79.293 107.600 M87.200 125.400 C 88.395 126.610,89.463 127.600,89.573 127.600 C 89.683 127.600,88.795 126.610,87.600 125.400 C 86.405 124.190,85.337 123.200,85.227 123.200 C 85.117 123.200,86.005 124.190,87.200 125.400 M106.900 134.276 C 107.285 134.376,107.915 134.376,108.300 134.276 C 108.685 134.175,108.370 134.093,107.600 134.093 C 106.830 134.093,106.515 134.175,106.900 134.276 M270.880 152.298 C 272.794 152.371,276.034 152.371,278.080 152.298 C 280.126 152.226,278.560 152.166,274.600 152.165 C 270.640 152.165,268.966 152.224,270.880 152.298 M260.100 153.076 C 260.485 153.176,261.115 153.176,261.500 153.076 C 261.885 152.975,261.570 152.893,260.800 152.893 C 260.030 152.893,259.715 152.975,260.100 153.076 M132.799 163.519 L 132.998 171.000 133.109 163.830 C 133.169 159.886,133.080 156.519,132.910 156.349 C 132.739 156.178,132.690 159.405,132.799 163.519 M166.996 235.800 C 166.996 279.580,167.043 297.549,167.100 275.732 C 167.157 253.914,167.157 218.094,167.100 196.132 C 167.043 174.169,166.996 192.020,166.996 235.800 M315.800 166.000 C 316.883 167.100,317.860 168.000,317.970 168.000 C 318.080 168.000,317.283 167.100,316.200 166.000 C 315.117 164.900,314.140 164.000,314.030 164.000 C 313.920 164.000,314.717 164.900,315.800 166.000 M133.395 245.200 C 133.395 282.270,133.442 297.435,133.500 278.900 C 133.557 260.365,133.557 230.035,133.500 211.500 C 133.442 192.965,133.395 208.130,133.395 245.200 M220.400 180.733 C 220.400 180.990,219.815 181.227,219.100 181.260 C 217.821 181.319,217.819 181.323,218.949 181.491 C 220.095 181.662,221.191 181.058,220.673 180.540 C 220.523 180.390,220.400 180.477,220.400 180.733 M245.715 193.096 C 246.988 193.176,248.968 193.175,250.115 193.094 C 251.262 193.014,250.220 192.949,247.800 192.950 C 245.380 192.951,244.442 193.016,245.715 193.096 M329.795 257.000 C 329.795 289.340,329.842 302.511,329.900 286.269 C 329.958 270.026,329.958 243.566,329.900 227.469 C 329.842 211.371,329.795 224.660,329.795 257.000 M268.000 199.325 C 268.000 199.394,268.585 199.979,269.300 200.625 L 270.600 201.800 269.425 200.500 C 268.330 199.288,268.000 199.016,268.000 199.325 M219.000 220.400 C 218.848 221.091,218.807 221.741,218.909 221.842 C 219.011 221.944,219.209 221.453,219.350 220.750 C 219.491 220.047,219.531 219.398,219.441 219.308 C 219.350 219.217,219.152 219.709,219.000 220.400 M278.093 223.200 C 278.093 223.970,278.175 224.285,278.276 223.900 C 278.376 223.515,278.376 222.885,278.276 222.500 C 278.175 222.115,278.093 222.430,278.093 223.200 M218.493 226.000 C 218.493 226.770,218.575 227.085,218.676 226.700 C 218.776 226.315,218.776 225.685,218.676 225.300 C 218.575 224.915,218.493 225.230,218.493 226.000 M278.520 227.200 C 278.520 228.410,278.595 228.905,278.687 228.300 C 278.778 227.695,278.778 226.705,278.687 226.100 C 278.595 225.495,278.520 225.990,278.520 227.200 M218.124 229.800 C 218.126 231.120,218.201 231.612,218.290 230.893 C 218.379 230.174,218.377 229.094,218.286 228.493 C 218.195 227.892,218.122 228.480,218.124 229.800 M87.724 315.899 C 90.762 315.967,95.622 315.967,98.524 315.899 C 101.426 315.831,98.940 315.775,93.000 315.775 C 87.060 315.775,84.686 315.831,87.724 315.899 M172.476 315.899 C 175.268 315.967,179.948 315.968,182.876 315.899 C 185.804 315.831,183.520 315.775,177.800 315.774 C 172.080 315.774,169.684 315.830,172.476 315.899 M284.500 315.899 C 287.525 315.967,292.475 315.967,295.500 315.899 C 298.525 315.831,296.050 315.775,290.000 315.775 C 283.950 315.775,281.475 315.831,284.500 315.899 M31.600 334.776 C 31.600 334.983,31.780 335.264,32.000 335.400 C 32.220 335.536,32.400 335.997,32.400 336.424 C 32.400 337.281,32.992 337.460,33.438 336.738 C 33.618 336.447,33.548 336.385,33.248 336.570 C 32.915 336.776,32.827 336.565,32.954 335.863 C 33.072 335.212,32.925 334.780,32.535 334.631 C 31.722 334.319,31.600 334.338,31.600 334.776 " stroke="none" fill="#d4d4d4" fill-rule="evenodd"></path><path id="path3" d="M283.492 30.815 L 281.985 32.379 302.892 32.526 C 315.551 32.615,324.668 32.842,326.000 33.103 C 328.482 33.588,332.250 34.691,333.295 35.237 C 333.677 35.437,334.184 35.600,334.421 35.600 C 338.095 35.600,350.426 44.447,355.606 50.800 C 356.593 52.010,357.535 53.060,357.700 53.133 C 357.865 53.207,358.000 53.522,358.000 53.833 C 358.000 54.145,358.147 54.400,358.326 54.400 C 358.636 54.400,359.084 55.144,361.603 59.845 C 363.975 64.269,365.705 69.705,366.760 76.046 C 367.058 77.838,367.231 93.455,367.295 124.446 L 367.391 170.200 367.595 129.932 L 367.800 89.664 368.770 88.632 C 369.303 88.064,369.978 87.600,370.270 87.600 C 370.680 87.600,370.800 86.549,370.800 82.976 C 370.800 79.996,370.658 78.441,370.400 78.600 C 370.180 78.736,370.000 78.667,370.000 78.447 C 370.000 78.227,370.179 77.937,370.397 77.802 C 370.897 77.493,370.644 74.399,370.091 74.055 C 369.865 73.915,369.748 73.222,369.831 72.516 C 369.957 71.437,369.871 71.274,369.290 71.491 C 368.705 71.710,368.678 71.654,369.110 71.122 C 369.532 70.602,369.507 70.450,368.965 70.242 C 368.481 70.056,368.422 69.856,368.738 69.474 C 369.213 68.902,368.900 67.091,368.382 67.411 C 368.202 67.522,367.925 67.402,367.766 67.145 C 367.591 66.861,367.649 66.783,367.915 66.947 C 368.396 67.245,368.350 65.952,367.831 64.600 C 366.520 61.187,365.825 59.755,365.343 59.475 C 365.035 59.297,364.876 59.001,364.989 58.817 C 365.264 58.372,364.194 56.339,363.861 56.673 C 363.717 56.816,363.600 56.530,363.600 56.038 C 363.600 55.546,363.328 54.871,362.996 54.539 C 362.664 54.207,362.513 53.725,362.660 53.468 C 362.808 53.210,362.780 53.134,362.600 53.298 C 362.313 53.558,360.400 51.224,360.400 50.615 C 360.400 50.490,359.588 49.553,358.596 48.532 C 357.603 47.511,356.882 46.584,356.993 46.473 C 357.104 46.362,356.791 46.061,356.298 45.803 C 355.804 45.545,355.445 45.124,355.500 44.867 C 355.555 44.610,355.390 44.445,355.133 44.500 C 354.876 44.555,354.448 44.184,354.183 43.675 C 353.918 43.166,353.543 42.753,353.351 42.758 C 353.158 42.762,352.230 42.054,351.289 41.183 C 350.348 40.312,349.484 39.600,349.368 39.600 C 348.771 39.600,346.447 37.682,346.702 37.400 C 346.866 37.220,346.795 37.189,346.545 37.331 C 346.295 37.474,345.868 37.323,345.596 36.996 C 345.324 36.668,344.779 36.400,344.384 36.400 C 343.990 36.400,343.607 36.255,343.533 36.077 C 343.364 35.667,337.589 32.858,336.567 32.688 C 336.145 32.618,335.440 32.366,335.000 32.128 C 334.288 31.742,332.085 31.107,331.000 30.974 C 330.780 30.947,330.150 30.740,329.600 30.513 C 329.050 30.287,327.936 30.136,327.124 30.178 C 326.260 30.223,325.680 30.077,325.724 29.827 C 325.777 29.530,319.607 29.377,305.400 29.325 L 285.000 29.251 283.492 30.815 M106.300 77.489 C 107.015 77.578,108.185 77.578,108.900 77.489 C 109.615 77.401,109.030 77.328,107.600 77.328 C 106.170 77.328,105.585 77.401,106.300 77.489 M132.920 172.800 C 132.920 174.010,132.995 174.505,133.087 173.900 C 133.178 173.295,133.178 172.305,133.087 171.700 C 132.995 171.095,132.920 171.590,132.920 172.800 M366.800 194.803 L 366.800 217.206 363.100 220.877 L 359.400 224.547 359.267 229.374 C 359.175 232.683,358.965 234.389,358.597 234.800 C 358.215 235.227,358.023 237.069,357.930 241.200 C 357.830 245.670,357.643 247.321,357.113 248.400 C 356.608 249.432,356.376 251.221,356.232 255.200 C 355.816 266.703,355.443 270.670,354.700 271.490 C 354.121 272.129,354.000 273.037,354.000 276.731 C 354.000 279.444,353.843 281.200,353.600 281.200 C 353.380 281.200,353.200 282.076,353.200 283.146 C 353.200 284.486,352.951 285.409,352.400 286.109 C 351.751 286.934,351.600 287.732,351.600 290.339 C 351.600 292.107,351.420 293.664,351.200 293.800 C 350.980 293.936,350.800 294.476,350.800 295.000 C 350.800 295.524,350.620 296.064,350.400 296.200 C 350.180 296.336,350.000 296.847,350.000 297.335 C 350.000 297.824,349.640 298.483,349.200 298.800 C 348.730 299.139,348.400 299.835,348.400 300.488 C 348.400 301.100,348.220 301.600,348.000 301.600 C 347.780 301.600,347.600 302.320,347.600 303.200 C 347.600 304.080,347.420 304.800,347.200 304.800 C 346.980 304.800,346.800 305.239,346.800 305.776 C 346.800 306.313,346.620 306.864,346.400 307.000 C 346.180 307.136,346.000 307.730,346.000 308.321 C 346.000 310.630,341.810 318.013,338.809 320.991 C 337.264 322.524,336.000 323.975,336.000 324.214 C 336.000 324.454,335.460 325.168,334.800 325.800 C 334.140 326.432,333.600 327.158,333.600 327.413 C 333.600 327.668,333.240 328.202,332.800 328.600 C 332.360 328.998,332.000 329.538,332.000 329.800 C 332.000 330.062,331.640 330.602,331.200 331.000 C 330.760 331.398,330.400 331.932,330.400 332.187 C 330.400 332.442,329.860 333.168,329.200 333.800 C 328.540 334.432,328.000 335.152,328.000 335.400 C 328.000 335.648,327.460 336.368,326.800 337.000 C 326.140 337.632,325.600 338.349,325.600 338.594 C 325.600 339.142,322.717 342.000,322.164 342.000 C 321.943 342.000,321.059 342.720,320.200 343.600 C 319.032 344.796,318.320 345.200,317.381 345.200 C 316.632 345.200,315.831 345.523,315.400 346.000 C 315.002 346.440,314.470 346.800,314.219 346.800 C 313.968 346.800,313.059 347.520,312.200 348.400 C 311.341 349.280,310.475 350.000,310.276 350.000 C 310.078 350.000,309.233 350.540,308.400 351.200 C 307.460 351.945,306.418 352.400,305.655 352.400 C 304.978 352.400,303.783 352.760,303.000 353.200 C 301.954 353.787,300.834 354.000,298.788 354.000 C 297.255 354.000,296.000 354.161,296.000 354.358 C 296.000 354.716,294.536 354.995,290.400 355.424 C 289.190 355.550,287.840 355.810,287.400 356.003 C 286.478 356.406,282.918 356.757,270.630 357.653 C 267.126 357.908,263.076 358.163,261.630 358.219 C 258.540 358.338,231.081 359.496,226.991 359.680 L 224.182 359.806 220.752 363.237 L 217.321 366.667 183.961 366.933 C 165.612 367.080,134.184 367.200,114.120 367.200 L 77.641 367.200 72.920 366.238 C 64.734 364.568,57.738 361.378,51.472 356.457 C 48.819 354.373,42.000 347.136,42.000 346.403 C 42.000 346.182,41.820 346.000,41.600 346.000 C 41.380 346.000,41.200 345.730,41.200 345.400 C 41.200 345.070,41.050 344.800,40.868 344.800 C 40.685 344.800,40.280 344.305,39.968 343.700 C 39.656 343.095,39.311 342.510,39.201 342.400 C 38.714 341.915,36.625 337.869,35.897 336.000 C 35.682 335.450,35.348 334.687,35.153 334.305 C 34.959 333.923,34.800 333.259,34.800 332.829 C 34.800 332.399,34.620 331.936,34.400 331.800 C 34.180 331.664,34.000 331.010,34.000 330.347 C 34.000 328.947,32.984 328.862,32.243 330.200 C 31.999 330.640,31.675 331.094,31.522 331.210 C 31.205 331.450,31.319 332.652,31.694 333.028 C 31.832 333.165,31.854 333.514,31.744 333.803 C 31.632 334.093,31.899 334.441,32.341 334.581 C 32.939 334.771,33.094 335.091,32.957 335.850 C 32.821 336.599,32.907 336.783,33.286 336.555 C 33.702 336.306,33.703 336.366,33.295 336.870 C 32.885 337.377,32.899 337.584,33.371 337.976 C 33.691 338.241,33.859 338.701,33.745 338.998 C 33.631 339.295,33.912 339.912,34.369 340.369 C 34.826 340.826,35.155 341.425,35.100 341.700 C 35.045 341.975,35.247 342.148,35.549 342.084 C 35.894 342.011,36.012 342.191,35.867 342.571 C 35.739 342.903,35.807 343.281,36.017 343.411 C 36.228 343.541,36.400 343.975,36.400 344.375 C 36.400 344.775,36.668 345.324,36.996 345.596 C 37.323 345.868,37.475 346.278,37.334 346.507 C 37.192 346.737,37.268 346.805,37.504 346.660 C 37.743 346.512,38.165 346.925,38.463 347.598 C 38.756 348.259,39.131 348.800,39.298 348.800 C 39.464 348.800,39.600 348.993,39.600 349.229 C 39.600 349.821,40.649 350.818,40.952 350.514 C 41.089 350.378,41.200 350.487,41.200 350.757 C 41.200 351.027,41.408 351.119,41.662 350.962 C 41.948 350.785,42.015 350.852,41.838 351.139 C 41.673 351.406,42.090 352.093,42.823 352.762 C 43.528 353.406,43.971 354.123,43.818 354.372 C 43.659 354.628,43.767 354.773,44.070 354.710 C 44.362 354.649,44.555 354.825,44.500 355.100 C 44.445 355.375,44.610 355.555,44.867 355.500 C 45.124 355.445,45.545 355.804,45.803 356.298 C 46.061 356.791,46.388 357.079,46.530 356.937 C 46.672 356.794,47.164 357.155,47.623 357.739 C 48.082 358.323,48.745 358.800,49.096 358.800 C 49.446 358.800,49.622 358.911,49.486 359.048 C 49.182 359.351,50.179 360.400,50.771 360.400 C 51.007 360.400,51.200 360.536,51.200 360.702 C 51.200 360.869,51.741 361.244,52.402 361.537 C 53.075 361.835,53.488 362.257,53.340 362.496 C 53.195 362.732,53.263 362.808,53.493 362.666 C 53.722 362.525,54.132 362.677,54.404 363.004 C 54.676 363.332,55.221 363.600,55.616 363.600 C 56.010 363.600,56.393 363.745,56.467 363.923 C 56.638 364.339,62.425 367.147,63.433 367.304 C 63.855 367.369,64.431 367.567,64.714 367.744 C 65.498 368.233,70.398 369.609,72.190 369.844 C 73.065 369.958,73.965 370.205,74.191 370.393 C 74.945 371.018,132.800 370.917,132.800 370.290 C 132.800 369.993,133.295 369.280,133.900 368.706 L 135.000 367.662 218.583 367.241 L 302.166 366.819 305.864 363.136 L 309.562 359.454 312.081 359.280 C 313.466 359.184,314.780 358.964,315.000 358.792 C 315.220 358.620,316.618 358.350,318.106 358.192 C 319.594 358.035,320.909 357.747,321.029 357.553 C 321.149 357.359,321.676 357.200,322.200 357.200 C 322.724 357.200,323.272 357.007,323.417 356.772 C 323.563 356.537,324.021 356.219,324.435 356.065 C 324.849 355.912,326.904 354.170,329.001 352.193 C 338.094 343.624,342.400 339.420,342.400 339.111 C 342.400 338.717,343.849 337.086,348.257 332.519 C 351.446 329.216,355.611 322.300,355.603 320.324 C 355.601 319.952,355.780 319.536,356.000 319.400 C 356.220 319.264,356.400 318.724,356.400 318.200 C 356.400 317.676,356.580 317.136,356.800 317.000 C 357.020 316.864,357.200 316.144,357.200 315.400 C 357.200 314.656,357.380 313.936,357.600 313.800 C 357.820 313.664,358.000 312.981,358.000 312.283 C 358.000 311.199,358.654 310.357,362.445 306.555 L 366.890 302.097 367.106 237.248 C 367.224 201.582,367.204 172.400,367.061 172.400 C 366.917 172.400,366.800 182.481,366.800 194.803 M29.741 324.704 C 29.886 324.939,29.836 325.192,29.630 325.266 C 29.424 325.340,29.496 325.726,29.790 326.124 C 30.126 326.581,30.420 326.691,30.585 326.424 C 30.729 326.191,30.662 326.000,30.436 326.000 C 30.210 326.000,30.122 325.748,30.240 325.440 C 30.358 325.133,30.234 324.745,29.965 324.579 C 29.667 324.394,29.579 324.443,29.741 324.704 M30.610 329.184 C 30.271 329.733,30.571 330.145,31.162 329.942 C 31.404 329.858,31.435 329.576,31.237 329.257 C 30.987 328.855,30.825 328.836,30.610 329.184 " stroke="none" fill="#cccccc" fill-rule="evenodd"></path><path id="path4" d="M368.611 69.582 C 368.467 69.815,368.635 70.115,368.985 70.250 C 369.509 70.451,369.531 70.602,369.110 71.112 C 368.687 71.625,368.702 71.696,369.200 71.531 C 369.901 71.298,370.007 69.536,369.333 69.311 C 369.080 69.227,368.755 69.349,368.611 69.582 M369.600 73.557 C 369.600 73.754,369.840 74.007,370.133 74.119 C 370.427 74.232,370.667 74.071,370.667 73.762 C 370.667 73.453,370.427 73.200,370.133 73.200 C 369.840 73.200,369.600 73.361,369.600 73.557 M87.586 85.900 L 85.400 88.200 87.700 86.014 C 89.837 83.982,90.183 83.600,89.886 83.600 C 89.824 83.600,88.789 84.635,87.586 85.900 M127.200 85.800 C 127.946 86.570,128.647 87.200,128.757 87.200 C 128.867 87.200,128.346 86.570,127.600 85.800 C 126.854 85.030,126.153 84.400,126.043 84.400 C 125.933 84.400,126.454 85.030,127.200 85.800 M368.770 88.632 L 367.800 89.663 367.707 103.132 C 367.656 110.539,367.440 158.348,367.226 209.374 L 366.839 302.149 362.419 306.581 C 358.652 310.359,358.000 311.200,358.000 312.283 C 358.000 312.981,357.820 313.664,357.600 313.800 C 357.380 313.936,357.200 314.656,357.200 315.400 C 357.200 316.144,357.020 316.864,356.800 317.000 C 356.580 317.136,356.400 317.676,356.400 318.200 C 356.400 318.724,356.220 319.264,356.000 319.400 C 355.780 319.536,355.601 319.952,355.603 320.324 C 355.611 322.300,351.446 329.216,348.257 332.519 C 343.849 337.086,342.400 338.717,342.400 339.111 C 342.400 339.420,338.094 343.624,329.001 352.193 C 326.904 354.170,324.849 355.912,324.435 356.065 C 324.021 356.219,323.563 356.537,323.417 356.772 C 323.272 357.007,322.724 357.200,322.200 357.200 C 321.676 357.200,321.149 357.359,321.029 357.553 C 320.909 357.747,319.594 358.035,318.106 358.192 C 316.618 358.350,315.220 358.620,315.000 358.792 C 314.780 358.964,313.466 359.184,312.081 359.280 L 309.562 359.454 305.864 363.136 L 302.166 366.819 218.583 367.241 L 135.000 367.662 133.900 368.706 C 133.295 369.280,132.800 369.987,132.800 370.278 C 132.800 370.714,149.698 370.804,229.800 370.797 C 293.168 370.791,326.800 370.651,326.800 370.394 C 326.800 370.177,327.599 370.000,328.576 370.000 C 329.553 370.000,330.464 369.820,330.600 369.600 C 330.736 369.380,331.377 369.200,332.024 369.200 C 332.671 369.200,333.200 369.020,333.200 368.800 C 333.200 368.580,333.740 368.400,334.400 368.400 C 335.060 368.400,335.600 368.220,335.600 368.000 C 335.600 367.780,335.924 367.600,336.320 367.600 C 337.214 367.600,339.193 366.706,339.197 366.300 C 339.199 366.135,339.560 366.000,340.000 366.000 C 340.440 366.000,340.800 365.820,340.800 365.600 C 340.800 365.380,341.160 365.200,341.600 365.200 C 342.040 365.200,342.400 365.020,342.400 364.800 C 342.400 364.580,342.760 364.400,343.200 364.400 C 343.640 364.400,344.000 364.262,344.000 364.094 C 344.000 363.926,344.708 363.482,345.574 363.107 C 346.440 362.732,347.790 361.783,348.574 360.999 C 349.358 360.215,350.000 359.733,350.000 359.927 C 350.000 360.308,352.649 358.033,355.341 355.341 C 358.033 352.649,360.308 350.000,359.927 350.000 C 359.733 350.000,360.215 349.358,360.999 348.574 C 361.783 347.790,362.732 346.440,363.107 345.574 C 363.482 344.708,363.926 344.000,364.094 344.000 C 364.262 344.000,364.400 343.640,364.400 343.200 C 364.400 342.760,364.580 342.400,364.800 342.400 C 365.020 342.400,365.200 342.040,365.200 341.600 C 365.200 341.160,365.380 340.800,365.600 340.800 C 365.820 340.800,366.000 340.440,366.000 340.000 C 366.000 339.560,366.135 339.199,366.300 339.197 C 366.706 339.193,367.600 337.214,367.600 336.320 C 367.600 335.924,367.780 335.600,368.000 335.600 C 368.220 335.600,368.400 335.060,368.400 334.400 C 368.400 333.740,368.580 333.200,368.800 333.200 C 369.020 333.200,369.200 332.671,369.200 332.024 C 369.200 331.377,369.380 330.736,369.600 330.600 C 369.820 330.464,370.000 329.553,370.000 328.576 C 370.000 327.599,370.178 326.800,370.395 326.800 C 370.654 326.800,370.792 285.628,370.797 207.200 C 370.804 107.857,370.715 87.600,370.272 87.600 C 369.979 87.600,369.303 88.064,368.770 88.632 M135.714 105.800 C 135.717 106.900,135.795 107.303,135.887 106.695 C 135.979 106.086,135.977 105.186,135.882 104.695 C 135.787 104.203,135.711 104.700,135.714 105.800 M106.905 133.887 C 107.514 133.979,108.414 133.977,108.905 133.882 C 109.397 133.787,108.900 133.711,107.800 133.714 C 106.700 133.717,106.297 133.795,106.905 133.887 M94.929 156.300 C 101.930 156.361,113.270 156.361,120.129 156.300 C 126.988 156.238,121.260 156.188,107.400 156.188 C 93.540 156.188,87.928 156.239,94.929 156.300 M179.700 156.300 C 186.685 156.361,198.115 156.361,205.100 156.300 C 212.085 156.239,206.370 156.188,192.400 156.188 C 178.430 156.188,172.715 156.239,179.700 156.300 M228.378 166.300 L 227.000 167.800 228.500 166.422 C 229.896 165.138,230.184 164.800,229.878 164.800 C 229.812 164.800,229.137 165.475,228.378 166.300 M132.800 245.080 C 132.690 283.844,132.736 315.425,132.901 315.259 C 133.067 315.093,133.157 283.377,133.101 244.779 L 133.000 174.600 132.800 245.080 M220.696 180.755 C 220.555 181.292,220.062 181.595,219.145 181.707 L 217.800 181.872 219.273 181.936 C 220.636 181.995,221.793 180.859,221.087 180.154 C 220.985 180.052,220.809 180.322,220.696 180.755 M329.309 198.800 C 329.309 199.790,329.387 200.195,329.482 199.700 C 329.578 199.205,329.578 198.395,329.482 197.900 C 329.387 197.405,329.309 197.810,329.309 198.800 M218.093 226.000 C 218.093 226.770,218.175 227.085,218.276 226.700 C 218.376 226.315,218.376 225.685,218.276 225.300 C 218.175 224.915,218.093 225.230,218.093 226.000 " stroke="none" fill="#c3c4c5" fill-rule="evenodd"></path></g></svg>